REM DIRINDEX 1\2,1\3,1\4
REM DIRNAME cjc141,folder01,folder02,folder03
TITLE ""
FILE "Track08.mp3" MP3
  TRACK 01 AUDIO
    TITLE "4:cjc141_036"
    INDEX 01 00:00:00
  TRACK 02 AUDIO
    TITLE "2:cjc141_037"
    INDEX 01 00:01:54
  TRACK 03 AUDIO
    TITLE "0:"
    INDEX 01 00:14:62
  TRACK 04 AUDIO
    TITLE "3:cjc141_038"
    INDEX 01 00:16:34
  TRACK 05 AUDIO
    TITLE "0:"
    INDEX 01 00:28:41
